<?xml version="1.0" encoding="utf-8"?>
<!-- Generator: Adobe Illustrator 15.0.2, SVG Export Plug-In  -->
<!DOCTYPE svg PUBLIC "-//W3C//DTD SVG 1.1//EN" "http://www.w3.org/Graphics/SVG/1.1/DTD/svg11.dtd" [
	<!ENTITY ns_flows "http://ns.adobe.com/Flows/1.0/">
]>
<svg version="1.1"
	 xmlns="http://www.w3.org/2000/svg" xmlns:xlink="http://www.w3.org/1999/xlink" xmlns:a="http://ns.adobe.com/AdobeSVGViewerExtensions/3.0/"
	 x="0px" y="0px" width="273px" height="350px" viewBox="4 0 273 350" overflow="visible" enable-background="new 4 0 273 350"
	 xml:space="preserve">
<defs>
</defs>
<path display="none" fill-rule="evenodd" clip-rule="evenodd" fill="#B7B7B7" d="M44,0c64,0,128,0,192,0
	c24.842,3.158,39.076,16.923,45,39c0,80,0,160,0,240c-7.573,29.154-39.92,42.741-66,59c-12.013,7.489-22.196,14.42-34,22
	c-11.271,7.238-25.382,16-41,16c-14.813,0-28.211-9.194-41-17c-13.123-8.009-23.599-14.861-35-22
	c-24.518-15.351-55.769-28.445-64-57c0-80.667,0-161.334,0-242C6.149,16.816,20.053,3.386,44,0z M23,97c0,32.703,0,90.033,0,124
	c0,19.098-3.397,48.162,2,60c3.119,6.841,16.945,14.331,26,20c21.109,13.216,37.033,23.41,57,36c8.328,5.251,21.301,14.926,32,15
	c11.223,0.078,23.096-9.543,32-15c21.793-13.357,35.911-22.307,58-36c8.44-5.232,22.89-13.391,26-21c6.467-15.825,2-44.215,2-61
	c0-50.274,0-74.961,0-126c0-17.662,1.846-50.085-4-59c-8.602-13.116-34.12-10-58-10c-34.49,0-69.415,0-102,0
	c-15.971,0-39.295-1.798-52,1C16.004,30.725,23,65.188,23,97z"/>
<path display="none" fill-rule="evenodd" clip-rule="evenodd" fill="#B7B7B7" d="M230,61c-2.157,7.843-5.243,14.757-8,22
	c-10.832-6.85-48.815-14.164-49,6c-0.153,16.778,40.19,25.19,50,35c3.347,3.347,6.824,8.14,8,11c19.663,47.804-45.329,70.453-87,48
	c2.456-7.544,5.544-14.456,8-22c14.332,7.102,56.207,15.358,55-9c-0.75-15.13-24.778-17.636-39-26
	c-17.167-10.096-33.142-42.975-10-63C173.58,49.519,208.695,50.679,230,61z"/>
<path display="none" fill-rule="evenodd" clip-rule="evenodd" fill="#B7B7B7" d="M54,56c26.333,0,52.667,0,79,0
	c0,7.667,0,15.333,0,23c-17.667,0-35.333,0-53,0c0,10.667,0,21.333,0,32c14.336,2.331,32.998,0.335,49,1
	c-0.568,7.432,1.198,17.198-1,23c-16,0-32,0-48,0c0,17.667,0,35.333,0,53c-8.667,0-17.333,0-26,0C54,144,54,100,54,56z"/>
<path display="none" fill-rule="evenodd" clip-rule="evenodd" fill="#B7B7B7" d="M136,236c20.393-2.591,39.965,12.602,40,34
	c0.073,44.97-67.103,46.467-71,4C102.901,251.132,116.89,238.428,136,236z M142,294c29.622-1.659,28.62-53.55-7-46
	C109.798,253.342,111.85,295.689,142,294z"/>
<polygon display="none" fill-rule="evenodd" clip-rule="evenodd" fill="none" stroke="#000000" stroke-width="22" stroke-miterlimit="10" points="
	270.328,364.521 140.396,364.521 11.279,364.521 11.279,11.079 270.328,11.079 "/>
<g>
	<path d="M140.396,228c12.703,0,23,10.298,23,23s-10.297,23-23,23c-12.702,0-23-10.298-23-23S127.693,228,140.396,228
		 M140.396,216.999c-18.748,0-34,15.253-34,34.001s15.252,34,34,34s34-15.252,34-34S159.143,216.999,140.396,216.999
		L140.396,216.999z"/>
</g>
<g display="none">
	<path display="inline" d="M140.396,248c12.703,0,23,10.298,23,23s-10.297,23-23,23c-12.702,0-23-10.298-23-23
		S127.693,248,140.396,248 M140.396,226c-24.813,0-45,20.187-45,45s20.187,45,45,45s45-20.187,45-45S165.208,226,140.396,226
		L140.396,226z"/>
</g>
<circle display="none" fill-rule="evenodd" clip-rule="evenodd" fill="none" stroke="#000000" stroke-width="22" stroke-miterlimit="10" cx="140.396" cy="271" r="23"/>
<g>
	<path d="M233,24c11,0,20,9,20,20v191.5c0,11-7.444,25.058-16.543,31.239l-79.516,54.021c-4.546,3.088-10.536,4.632-16.526,4.632
		c-6,0-12-1.549-16.551-4.646l-79.329-53.994C35.44,260.564,28,246.5,28,235.5V44c0-11,9-20,20-20H233 M233,0H48
		C23.739,0,4,19.738,4,44v191.5c0,18.947,11.368,40.436,27.031,51.095l79.327,53.992c8.344,5.679,19.018,8.806,30.055,8.806
		c11.02,0,21.679-3.118,30.013-8.779l79.516-54.022C265.621,275.94,277,254.453,277,235.5V44C277,19.738,257.261,0,233,0L233,0z"/>
</g>
<text transform="matrix(1 0 0 1 41.9297 215.4307)" display="none" font-family="'PTSans-NarrowBold'" font-size="239.2346">FS</text>
<text transform="matrix(1 0 0 1 41.9297 191.8955)" font-family="'PTSans-Bold'" font-size="193.8981">FS</text>
<g display="none">
	<path display="inline" fill-rule="evenodd" clip-rule="evenodd" d="M156.94,340.761c-9.099,6.182-23.983,6.175-33.077-0.014
		l-79.329-53.994C35.44,280.564,28,266.5,28,255.5V44c0-11,9-20,20-20H233c11,0,20,9,20,20v211.5c0,11-7.444,25.058-16.543,31.239
		L156.94,340.761z"/>
	<path display="inline" fill="none" stroke="#000000" stroke-width="28" stroke-miterlimit="10" d="M156.94,340.761
		c-9.099,6.182-23.983,6.175-33.077-0.014l-79.329-53.994C35.44,280.564,28,266.5,28,255.5V44c0-11,9-20,20-20H233c11,0,20,9,20,20
		v211.5c0,11-7.444,25.058-16.543,31.239L156.94,340.761z"/>
</g>
<text transform="matrix(1 0 0 1 41.9297 191.8955)" display="none" fill="#FFFFFF" font-family="'PTSans-Bold'" font-size="193.8981">FS</text>
<text transform="matrix(1 0 0 1 41.9297 191.8955)" display="none" fill="#FFFFFF" font-family="'PTSans-Regular'" font-size="193.8981">FS</text>
<g display="none">
	<path display="inline" fill="#FFFFFF" d="M140.396,248c12.703,0,23,10.298,23,23s-10.297,23-23,23c-12.702,0-23-10.298-23-23
		S127.693,248,140.396,248 M140.396,237c-18.748,0-34,15.252-34,34s15.252,34,34,34s34-15.252,34-34S159.143,237,140.396,237
		L140.396,237z"/>
</g>
<g display="none">
	<path display="inline" fill-rule="evenodd" clip-rule="evenodd" d="M140.396,299.5c-15.715,0-28.5-12.785-28.5-28.5
		s12.785-28.5,28.5-28.5s28.5,12.785,28.5,28.5S156.11,299.5,140.396,299.5z"/>
	<path display="inline" fill="#FFFFFF" d="M140.396,248c12.703,0,23,10.298,23,23s-10.297,23-23,23c-12.702,0-23-10.298-23-23
		S127.693,248,140.396,248 M140.396,237c-18.748,0-34,15.252-34,34s15.252,34,34,34s34-15.252,34-34S159.143,237,140.396,237
		L140.396,237z"/>
</g>
<g display="none">
	<path display="inline" fill-rule="evenodd" clip-rule="evenodd" d="M156.94,320.761c-9.099,6.182-23.983,6.175-33.077-0.014
		l-79.329-53.994C35.44,260.564,28,246.5,28,235.5V44c0-11,9-20,20-20H233c11,0,20,9,20,20v191.5c0,11-7.444,25.058-16.543,31.239
		L156.94,320.761z"/>
	<path display="inline" fill="none" stroke="#000000" stroke-width="28" stroke-miterlimit="10" d="M156.94,320.761
		c-9.099,6.182-23.983,6.175-33.077-0.014l-79.329-53.994C35.44,260.564,28,246.5,28,235.5V44c0-11,9-20,20-20H233c11,0,20,9,20,20
		v191.5c0,11-7.444,25.058-16.543,31.239L156.94,320.761z"/>
</g>
<text transform="matrix(1 0 0 1 41.9297 191.8955)" display="none" fill="#FFFFFF" font-family="'PTSans-Bold'" font-size="193.8981">FS</text>
<text transform="matrix(1 0 0 1 41.9297 191.8955)" display="none" fill="#FFFFFF" font-family="'PTSans-Regular'" font-size="193.8981">FS</text>
<g display="none">
	<path display="inline" fill="#FFFFFF" d="M140.396,233c12.703,0,23,10.298,23,23s-10.297,23-23,23c-12.702,0-23-10.298-23-23
		S127.693,233,140.396,233 M140.396,222c-18.748,0-34,15.252-34,34s15.252,34,34,34s34-15.252,34-34S159.143,222,140.396,222
		L140.396,222z"/>
</g>
<g display="none">
	<path display="inline" fill-rule="evenodd" clip-rule="evenodd" d="M140.396,299.5c-15.715,0-28.5-12.785-28.5-28.5
		s12.785-28.5,28.5-28.5s28.5,12.785,28.5,28.5S156.11,299.5,140.396,299.5z"/>
	<path display="inline" fill="#FFFFFF" d="M140.396,248c12.703,0,23,10.298,23,23s-10.297,23-23,23c-12.702,0-23-10.298-23-23
		S127.693,248,140.396,248 M140.396,237c-18.748,0-34,15.252-34,34s15.252,34,34,34s34-15.252,34-34S159.143,237,140.396,237
		L140.396,237z"/>
</g>
</svg>
