<?xml version="1.0" encoding="utf-8"?>
<!-- Generator: Adobe Illustrator 15.0.2, SVG Export Plug-In  -->
<!DOCTYPE svg PUBLIC "-//W3C//DTD SVG 1.1//EN" "http://www.w3.org/Graphics/SVG/1.1/DTD/svg11.dtd" [
	<!ENTITY ns_flows "http://ns.adobe.com/Flows/1.0/">
]>
<svg version="1.1"
	 xmlns="http://www.w3.org/2000/svg" xmlns:xlink="http://www.w3.org/1999/xlink" xmlns:a="http://ns.adobe.com/AdobeSVGViewerExtensions/3.0/"
	 x="0px" y="0px" width="100px" height="100px" viewBox="-8.537 0 100 100"
	 overflow="visible" enable-background="new -8.537 0 100 100" xml:space="preserve">
<defs>
</defs>
<path class="iconFill" d="M70.817,12.09C54.61-4.117,28.421-3.986,12.213,12.221c-16.208,16.207-16.322,42.455-0.117,58.66L41.382,100l29.343-29.348
	C86.934,54.443,87.024,28.299,70.817,12.09z M41.46,76.756c-19.603,0-35.497-15.892-35.497-35.497
	c0-19.61,15.895-35.505,35.497-35.505c19.608,0,35.503,15.895,35.503,35.505C76.957,60.864,61.069,76.756,41.46,76.756z"/>
<path display="none" d="M39.488,16.008c1.517-1.299,4.18-0.863,5.04,0.99c1.744,4.321,3.457,8.656,5.19,12.98
	c0.03,0.146,0.167,0.197,0.304,0.197c4.336,0.296,8.672,0.649,13.01,0.96c1.242,0.026,2.477,0.711,3.039,1.841
	c0.697,1.269,0.463,3.029-0.676,3.968c-3.498,2.876-6.965,5.791-10.453,8.676c-0.099,0.083-0.195,0.169-0.262,0.279
	c0.986,4.291,2.09,8.561,3.122,12.843c0.781,2.148-1.05,4.681-3.351,4.512c-0.793-0.01-1.486-0.441-2.119-0.876
	c-3.42-2.161-6.842-4.323-10.266-6.481c-0.292-0.179-0.567-0.402-0.896-0.508c-3.881,2.336-7.702,4.779-11.573,7.137
	c-1.064,0.635-2.478,0.625-3.523-0.045c-1.103-0.656-1.78-2.01-1.521-3.285c1.115-4.577,2.37-9.136,3.435-13.722
	c-3.145-2.707-6.337-5.358-9.497-8.046c-0.715-0.581-1.492-1.187-1.802-2.09c-0.759-1.815,0.441-4.18,2.43-4.463
	c4.732-0.4,9.497-0.568,14.217-1.002c1.633-3.901,3.203-7.833,4.818-11.746C38.457,17.343,38.802,16.53,39.488,16.008z"/>
</svg>
