<?xml version="1.0" encoding="utf-8"?>
<!-- Generator: Adobe Illustrator 15.0.2, SVG Export Plug-In  -->
<!DOCTYPE svg PUBLIC "-//W3C//DTD SVG 1.1//EN" "http://www.w3.org/Graphics/SVG/1.1/DTD/svg11.dtd" [
	<!ENTITY ns_flows "http://ns.adobe.com/Flows/1.0/">
]>
<svg version="1.1"
	 xmlns="http://www.w3.org/2000/svg" xmlns:xlink="http://www.w3.org/1999/xlink" xmlns:a="http://ns.adobe.com/AdobeSVGViewerExtensions/3.0/"
	 x="0px" y="0px" width="100px" height="147px" viewBox="-5 -8.444 100 147"
	 overflow="visible" enable-background="new -5 -8.444 100 147" xml:space="preserve">
<defs>
</defs>
<path d="M79.494,1.509C84.311,2.5,86.34,7.053,86.34,7.053l3.661,11.376H71.127V11.02v-0.543
	C71.411,6.019,75.112,2.364,79.494,1.509z"/>
<path d="M68.491,0h-0.031h-9.671h-1.94H9.704C4.347,0,0.002,4.343,0.002,9.702v90.461v3.881v8.758c-0.006,0.111,0.002,0.229,0,0.341
	v0.603h0.031v-0.002c0.14,2.18,1.126,4.508,2.968,6.455l24.378,11.569c4.188,1.854,9.058,1.729,12.997,0l25.052-11.567
	c1.84-1.949,2.826-4.276,2.967-6.455h0.096v-9.701v-3.881v-80.76V9.702V9.159C68.815,4.055,73.619,0,78.793,0H68.491z
	 M49.911,93.528c-5.198,5.197-13.514,13.519-14.971,14.975c-1.455-1.456-9.772-9.777-14.971-14.975
	c-4.657-4.658-4.558-11.446-0.323-15.657c4.235-4.212,11.082-4.193,15.294,0.04c4.213-4.233,11.06-4.252,15.295-0.04
	C54.469,82.082,54.569,88.87,49.911,93.528z"/>
<path display="none" d="M18.394,42.164c0,1.457,1.182,2.638,2.639,2.638h10.548v10.548c0,1.457,1.181,2.639,2.638,2.639
	c1.456,0,2.637-1.182,2.637-2.639V44.801h10.55c1.455,0,2.637-1.181,2.637-2.638c0-1.457-1.18-2.638-2.637-2.638H36.857V28.978
	c0-1.456-1.182-2.637-2.638-2.637s-2.638,1.18-2.638,2.637v10.548H21.034C19.577,39.526,18.396,40.707,18.394,42.164z"/>
<path display="none" fill="#FFFFFF" d="M34.94,58.502c1.457-1.456,9.772-9.777,14.971-14.975c4.658-4.658,4.559-11.447,0.324-15.658
	C46,23.657,39.153,23.675,34.94,27.91c-4.212-4.234-11.059-4.253-15.294-0.04c-4.234,4.211-4.333,11,0.323,15.658
	C25.167,48.725,33.485,57.046,34.94,58.502z"/>
</svg>
