<?xml version="1.0" encoding="utf-8"?>
<!-- Generator: Adobe Illustrator 15.0.2, SVG Export Plug-In  -->
<!DOCTYPE svg [
	<!ENTITY ns_flows "http://ns.adobe.com/Flows/1.0/">
]>
<svg version="1.2" baseProfile="tiny"
	 xmlns="http://www.w3.org/2000/svg" xmlns:xlink="http://www.w3.org/1999/xlink" xmlns:a="http://ns.adobe.com/AdobeSVGViewerExtensions/3.0/"
	 x="0px" y="0px" width="100px" height="100px" viewBox="-5 -8.444 100 100" overflow="visible" xml:space="preserve">
<defs>
</defs>
<path d="M79.494,1.509C84.311,2.5,86.34,7.053,86.34,7.053l3.661,11.376H71.127V11.02v-0.543
	C71.411,6.019,75.112,2.364,79.494,1.509z"/>
<path d="M0.034,63.746H0.002v-0.603c0.002-0.112-0.006-0.229,0-0.341v-8.758v-3.881V9.702C0.002,4.343,4.347,0,9.704,0h47.145h1.94
	h9.671h0.031h10.303c-5.175,0-9.979,4.055-10.303,9.159v0.543v9.701v30.76v3.881v9.701h-0.096c-0.141,2.179-1.127,4.506-2.967,6.455
	L40.376,81.768c-3.939,1.729-8.809,1.854-12.997,0L3.001,70.199c-1.842-1.947-2.828-4.275-2.968-6.455V63.746z"/>
<path d="M18.394,42.164c0,1.457,1.182,2.638,2.639,2.638h10.548v10.548c0,1.457,1.181,2.639,2.638,2.639
	c1.456,0,2.637-1.182,2.637-2.639V44.801h10.55c1.455,0,2.637-1.181,2.637-2.638c0-1.457-1.18-2.638-2.637-2.638H36.857V28.978
	c0-1.456-1.182-2.637-2.638-2.637s-2.638,1.18-2.638,2.637v10.548H21.034C19.577,39.526,18.396,40.707,18.394,42.164z"/>
</svg>
