<svg xmlns="http://www.w3.org/2000/svg" xmlns:xlink="http://www.w3.org/1999/xlink" version="1.1" id="Your_Icon" x="0px" y="0px" width="100px" height="100px" viewBox="0 0 100 100" enable-background="new 0 0 100 100" xml:space="preserve">
<path d="M80,38h-4v-2h-2v-7C74,15.491,63.01,4.5,49.5,4.5C35.991,4.5,25,15.491,25,29v7h-2v2h-5c-2.209,0-4,1.791-4,4v47  c0,2.209,1.791,4,4,4h62c2.209,0,4-1.791,4-4V42C84,39.791,82.209,38,80,38z M52.97,65.719c0.127,0.358,0.03,0.737,0.03,1.138v7.714  C53,76.465,51.822,78,49.929,78h-0.857C47.178,78,46,76.465,46,74.571v-7.714c0-0.401-0.097-0.781,0.03-1.138  c-1.678-1.16-2.959-3.095-2.959-5.29c0-3.55,2.878-6.429,6.429-6.429s6.429,2.878,6.429,6.429  C55.929,62.623,54.648,64.559,52.97,65.719z M65,36h-2v2H36v-2h-2v-7c0-8.547,6.953-15.5,15.5-15.5S65,20.453,65,29V36z"/>
</svg>